<mxfile host="app.diagrams.net" modified="2024-01-31T10:00:35.765Z" agent="Mozilla/5.0 (Windows NT 10.0; Win64; x64) AppleWebKit/537.36 (KHTML, like Gecko) Chrome/121.0.0.0 Safari/537.36" version="23.0.2" etag="zV-UrxmPI6mPHxATSqn_" type="github">
  <diagram name="Halaman-1" id="v_zcvfK6wkfld0bvew8H">
    <mxGraphModel>
      <root>
        <mxCell id="0" />
        <mxCell id="1" parent="0" />
      </root>
    </mxGraphModel>
  </diagram>
</mxfile>
